<svg xmlns="http://www.w3.org/2000/svg" width="1000" height="520" viewBox="0 0 1000 520">
<rect width="100%" height="100%" fill="white"/>
<text x="500.0" y="28" font-size="22" font-family="Arial, sans-serif" text-anchor="middle">time - friction (pitch)</text>
<g font-family="Arial, sans-serif" fill="#222">
<line x1="90.00" y1="55" x2="90.00" y2="450" stroke="#eeeeee"/><line x1="266.00" y1="55" x2="266.00" y2="450" stroke="#eeeeee"/><line x1="442.00" y1="55" x2="442.00" y2="450" stroke="#eeeeee"/><line x1="618.00" y1="55" x2="618.00" y2="450" stroke="#eeeeee"/><line x1="794.00" y1="55" x2="794.00" y2="450" stroke="#eeeeee"/><line x1="970.00" y1="55" x2="970.00" y2="450" stroke="#eeeeee"/><line x1="90" y1="55.00" x2="970" y2="55.00" stroke="#eeeeee"/><line x1="90" y1="134.00" x2="970" y2="134.00" stroke="#eeeeee"/><line x1="90" y1="213.00" x2="970" y2="213.00" stroke="#eeeeee"/><line x1="90" y1="292.00" x2="970" y2="292.00" stroke="#eeeeee"/><line x1="90" y1="371.00" x2="970" y2="371.00" stroke="#eeeeee"/><line x1="90" y1="450.00" x2="970" y2="450.00" stroke="#eeeeee"/>
<line x1="90" y1="450" x2="970" y2="450" stroke="#333" stroke-width="1.5"/>
<line x1="90" y1="55" x2="90" y2="450" stroke="#333" stroke-width="1.5"/>
<polyline fill="none" stroke="#1f77b4" stroke-width="2" points="90.00,234.32 91.56,230.24 93.12,235.79 94.67,197.39 96.23,139.37 97.78,96.09 99.34,83.97 100.89,101.50 103.24,144.19 105.89,191.06 108.18,322.30 110.53,110.87 112.92,214.71 113.99,378.61 114.98,387.89 117.79,105.71 120.35,273.10 123.43,377.13 126.53,338.42 128.95,272.65 129.94,201.76 130.78,83.24 133.23,174.74 135.63,98.64 138.01,416.75 140.40,84.54 142.74,378.67 144.15,338.44 145.20,226.35 146.04,130.42 147.19,201.48 149.61,406.74 152.07,168.07 154.47,204.52 156.49,249.19 157.34,285.30 158.71,201.09 161.22,271.79 163.57,130.88 165.94,268.25 168.37,232.88 171.44,299.25 173.99,165.73 174.85,97.46 175.99,148.63 178.37,83.48 181.63,422.76 184.41,89.46 186.75,82.24 187.80,135.34 189.34,422.26 191.67,422.54 194.11,83.85 196.50,422.76 199.07,390.63 200.63,82.27 201.50,82.78 202.35,91.24 204.17,422.76 206.53,106.23 208.90,139.85 211.24,237.86 213.65,152.75 215.99,413.75 218.38,274.22 219.53,82.30 220.60,82.32 222.97,422.59 225.28,82.90 227.62,413.61 230.02,82.65 232.46,203.48 233.52,242.81 234.36,109.51 236.26,106.93 238.68,196.00 240.99,144.63 243.81,165.18 246.91,256.96 249.58,283.63 250.42,225.05 251.30,422.76 252.35,422.66 253.24,417.85 254.28,337.76 255.32,83.42 256.29,151.82 259.20,359.61 262.15,405.81 264.72,92.81 266.81,304.40 267.86,158.95 268.97,241.85 269.98,389.65 271.02,103.94 271.98,419.75 272.83,401.26 273.72,411.41 274.77,396.68 277.90,348.74 280.68,351.01 282.75,83.95 283.66,82.57 284.51,151.08 285.68,99.35 288.26,143.95 290.73,397.72 293.25,217.51 296.10,142.89 297.91,213.11 301.03,114.34 303.38,296.97 305.80,292.22 308.08,102.81 310.27,187.60 312.65,88.52 315.11,151.77 317.50,136.93 319.86,106.32 322.24,348.32 323.15,120.85 324.02,418.77 324.89,286.18 326.27,252.93 328.63,82.25 331.07,310.07 333.74,88.62 336.86,149.12 339.06,94.32 340.65,82.30 343.89,422.76 347.11,82.47 350.36,410.81 353.45,320.94 356.26,84.59 358.41,334.73 359.26,187.84 360.14,112.95 361.05,156.35 363.82,110.02 367.10,388.27 369.61,82.36 372.34,82.27 374.73,421.49 375.89,421.67 377.24,413.54 380.18,422.76 382.78,420.15 386.00,414.47 389.17,296.37 391.82,351.92 392.90,418.43 393.85,422.22 395.91,82.25 398.28,249.46 400.82,99.01 403.19,149.53 405.53,196.61 406.40,201.52 407.26,220.63 408.14,262.28 409.01,169.88 409.89,258.90 412.36,350.07 415.22,135.09 417.90,220.11 420.30,211.32 422.67,384.91 423.63,327.55 424.49,284.15 425.39,324.07 426.25,302.35 427.12,391.81 428.82,285.01 431.19,270.88 433.79,202.41 436.20,335.84 438.52,146.99 440.89,133.75 441.92,136.24 442.77,131.01 443.65,155.62 444.49,144.52 445.88,107.54 448.29,268.36 450.69,180.30 453.06,336.56 455.65,127.80 458.75,354.83 461.25,359.33 462.09,240.95 462.95,182.10 463.82,192.30 465.74,162.50 468.13,115.14 470.45,153.90 473.44,145.35 476.53,299.67 479.73,120.78 482.83,118.19 484.06,111.54 484.94,160.74 487.55,418.43 489.95,82.25 492.71,418.04 495.35,305.70 497.70,82.24 498.62,83.26 499.56,111.62 501.99,420.56 504.43,82.24 506.84,420.50 509.30,422.76 511.19,85.26 512.04,82.24 512.91,82.24 513.76,82.29 514.65,86.15 516.00,98.65 518.63,312.35 521.05,95.48 523.39,84.62 525.24,422.73 528.20,296.17 531.34,82.85 533.85,148.09 536.18,91.97 538.22,95.30 539.20,84.55 540.23,85.99 541.27,87.65 542.28,176.30 545.09,422.67 548.19,422.46 551.14,82.25 553.71,338.39 556.04,128.01 558.14,153.19 559.00,393.74 559.86,260.16 562.10,351.20 564.47,407.26 566.86,404.44 569.58,87.51 572.64,141.37 574.99,186.22 576.08,116.57 577.12,108.61 578.16,175.04 579.32,162.61 582.50,123.45 585.65,410.37 588.57,89.03 591.10,414.66 593.97,247.53 594.82,418.18 595.70,402.67 596.59,320.20 597.45,295.26 598.33,196.79 599.19,260.61 600.07,218.18 601.03,193.46 603.61,212.26 606.07,230.30 608.22,406.48 609.09,419.62 609.94,291.59 610.83,224.55 613.07,82.30 615.44,422.29 617.86,359.71 620.52,350.28 623.72,331.34 626.22,187.11 627.35,252.97 628.21,130.29 629.11,126.87 629.97,114.29 632.56,297.42 635.81,409.58 638.91,97.43 641.99,227.19 645.06,352.69 648.04,99.64 649.40,186.17 650.29,111.58 652.72,84.79 655.62,405.72 658.46,360.59 661.49,422.70 664.60,422.74 666.99,82.24 667.85,82.24 668.72,82.77 669.58,417.36 670.45,422.58 671.30,86.04 673.39,421.94 675.76,138.37 678.08,159.25 680.43,337.08 682.86,410.36 685.27,111.93 686.55,104.63 687.48,164.58 688.42,329.84 689.45,117.85 690.41,235.29 691.28,192.34 692.13,119.11 694.49,149.33 696.87,160.52 699.22,206.43 701.57,241.50 703.92,129.17 704.86,252.39 705.91,284.09 706.94,173.05 707.97,143.42 710.78,285.54 713.91,191.40 716.79,260.94 719.32,149.55 722.42,219.80 724.47,377.30 725.46,367.29 727.44,418.72 729.81,413.66 732.17,419.78 734.46,82.40 736.83,265.14 739.14,87.23 741.55,179.81 742.70,236.68 743.58,105.58 744.44,146.32 745.28,189.11 746.15,204.40 747.03,226.44 747.87,207.25 748.75,203.82 749.61,160.43 751.99,85.36 754.30,191.78 756.73,249.15 759.08,268.33 761.51,101.17 762.97,197.09 763.84,203.32 765.92,87.77 768.30,422.63 770.64,82.28 773.07,336.81 775.45,408.76 777.22,249.23 778.08,370.57 778.92,400.65 779.77,373.85 780.77,403.52 781.82,82.65 782.86,390.48 783.76,413.74 784.60,417.51 785.51,421.97 786.37,400.42 787.25,181.77 788.12,380.63 789.01,206.04 790.59,123.36 792.95,157.39 795.29,327.06 797.67,118.05 800.00,196.48 802.42,114.90 805.35,187.41 807.92,238.13 810.28,170.12 813.41,137.05 816.32,165.24 818.63,101.54 819.47,163.04 820.33,255.34 822.61,222.37 825.08,120.67 828.09,415.16 830.72,82.24 833.08,422.01 835.39,422.76 837.07,102.92 838.91,82.67 841.52,422.75 843.86,263.52 846.19,369.32 848.56,341.76 850.90,375.63 852.32,321.61 853.19,219.47 854.04,226.84 854.91,198.98 857.37,338.13 859.97,284.59 862.34,206.61 864.89,158.92 866.49,89.45 867.40,421.96 868.28,403.11 869.17,299.92 870.03,112.05 870.98,84.08 873.43,403.99 875.83,412.98 878.14,169.07 879.02,195.53 880.06,223.32 882.19,251.85 885.12,216.46 888.29,185.05 891.38,258.62 894.46,277.61 897.62,285.22 900.75,341.09 902.08,204.91 903.11,211.56 904.14,110.17 906.58,134.02 908.94,161.34 911.28,232.65 913.69,205.31 915.68,166.06 916.53,276.67 917.40,197.80 918.29,169.62 919.97,300.65 922.31,199.73 924.67,262.79 927.12,422.18 930.23,397.67 931.90,273.36 932.78,303.90 933.65,329.96 934.54,182.09 935.42,138.04 936.29,362.44 937.14,403.25 938.00,422.56 938.86,415.53 940.25,126.13 942.66,326.65 945.02,298.67 947.58,403.99 949.87,405.49 950.72,207.79 951.60,164.97 953.05,303.53 955.91,322.44 959.03,246.43 962.28,340.70 964.68,340.49 966.20,362.96 967.06,266.54 967.91,267.29 970.00,149.59"/>
<text x="90.00" y="474" font-size="12" text-anchor="middle">11.75</text><text x="266.00" y="474" font-size="12" text-anchor="middle">23.06</text><text x="442.00" y="474" font-size="12" text-anchor="middle">34.37</text><text x="618.00" y="474" font-size="12" text-anchor="middle">45.68</text><text x="794.00" y="474" font-size="12" text-anchor="middle">56.99</text><text x="970.00" y="474" font-size="12" text-anchor="middle">68.31</text><text x="78" y="59.00" font-size="12" text-anchor="end">0.348</text><text x="78" y="138.00" font-size="12" text-anchor="end">0.209</text><text x="78" y="217.00" font-size="12" text-anchor="end">0.0696</text><text x="78" y="296.00" font-size="12" text-anchor="end">-0.0696</text><text x="78" y="375.00" font-size="12" text-anchor="end">-0.209</text><text x="78" y="454.00" font-size="12" text-anchor="end">-0.348</text>
<text x="530.0" y="498" font-size="14" text-anchor="middle">Time [s]</text>
<text transform="translate(24 252.5) rotate(-90)" font-size="14" text-anchor="middle">Friction pitch [Nm]</text>
</g>
</svg>
