<svg xmlns="http://www.w3.org/2000/svg" width="1000" height="520" viewBox="0 0 1000 520">
<rect width="100%" height="100%" fill="white"/>
<text x="500.0" y="28" font-size="22" font-family="Arial, sans-serif" text-anchor="middle">time - total (pitch)</text>
<g font-family="Arial, sans-serif" fill="#222">
<line x1="90.00" y1="55" x2="90.00" y2="450" stroke="#eeeeee"/><line x1="266.00" y1="55" x2="266.00" y2="450" stroke="#eeeeee"/><line x1="442.00" y1="55" x2="442.00" y2="450" stroke="#eeeeee"/><line x1="618.00" y1="55" x2="618.00" y2="450" stroke="#eeeeee"/><line x1="794.00" y1="55" x2="794.00" y2="450" stroke="#eeeeee"/><line x1="970.00" y1="55" x2="970.00" y2="450" stroke="#eeeeee"/><line x1="90" y1="55.00" x2="970" y2="55.00" stroke="#eeeeee"/><line x1="90" y1="134.00" x2="970" y2="134.00" stroke="#eeeeee"/><line x1="90" y1="213.00" x2="970" y2="213.00" stroke="#eeeeee"/><line x1="90" y1="292.00" x2="970" y2="292.00" stroke="#eeeeee"/><line x1="90" y1="371.00" x2="970" y2="371.00" stroke="#eeeeee"/><line x1="90" y1="450.00" x2="970" y2="450.00" stroke="#eeeeee"/>
<line x1="90" y1="450" x2="970" y2="450" stroke="#333" stroke-width="1.5"/>
<line x1="90" y1="55" x2="90" y2="450" stroke="#333" stroke-width="1.5"/>
<polyline fill="none" stroke="#1f77b4" stroke-width="2" points="90.00,307.33 91.56,305.71 93.12,307.59 94.67,296.71 96.23,274.50 97.78,247.81 99.34,221.50 100.89,215.82 103.24,215.43 105.89,214.68 108.18,246.42 110.53,201.60 112.92,211.03 113.99,252.47 114.98,259.02 117.79,171.71 120.35,202.08 123.43,272.51 126.53,267.90 128.95,259.88 129.94,239.88 130.78,189.19 133.23,218.44 135.63,188.88 138.01,312.87 140.40,207.74 142.74,266.14 144.15,284.59 145.20,255.22 146.04,212.21 147.19,226.72 149.61,317.21 152.07,247.40 154.47,261.20 156.49,258.98 157.34,268.65 158.71,244.17 161.22,263.16 163.57,216.80 165.94,230.98 168.37,254.12 171.44,262.89 173.99,228.19 174.85,197.87 175.99,224.31 178.37,165.40 181.63,291.63 184.41,246.44 186.75,82.24 187.80,125.37 189.34,267.31 191.67,335.00 194.11,173.02 196.50,286.78 199.07,345.87 200.63,195.92 201.50,197.64 202.35,173.93 204.17,361.44 206.53,226.06 208.90,238.90 211.24,252.81 213.65,230.06 215.99,302.37 218.38,289.63 219.53,202.98 220.60,177.92 222.97,342.56 225.28,233.02 227.62,291.55 230.02,196.52 232.46,235.00 233.52,244.28 234.36,206.56 236.26,207.04 238.68,223.91 240.99,208.08 243.81,203.42 246.91,234.35 249.58,213.59 250.42,204.36 251.30,315.23 252.35,317.36 253.24,308.90 254.28,274.03 255.32,180.81 256.29,205.66 259.20,281.64 262.15,283.52 264.72,209.42 266.81,264.28 267.86,240.25 268.97,254.88 269.98,297.89 271.02,218.56 271.98,326.17 272.83,306.84 273.72,323.11 274.77,303.41 277.90,316.38 280.68,341.62 282.75,253.46 283.66,233.47 284.51,267.09 285.68,254.46 288.26,262.63 290.73,323.40 293.25,281.28 296.10,268.81 297.91,284.53 301.03,246.28 303.38,300.28 305.80,299.28 308.08,254.42 310.27,269.91 312.65,227.65 315.11,240.99 317.50,235.61 319.86,225.32 322.24,285.42 323.15,229.17 324.02,310.05 324.89,269.42 326.27,253.55 328.63,184.86 331.07,236.07 333.74,164.21 336.86,215.56 339.06,196.03 340.65,133.73 343.89,352.11 347.11,173.09 350.36,307.53 353.45,232.14 356.26,168.58 358.41,233.44 359.26,192.56 360.14,175.09 361.05,186.45 363.82,170.64 367.10,268.64 369.61,135.30 372.34,98.14 374.73,216.71 375.89,222.48 377.24,202.50 380.18,345.59 382.78,384.21 386.00,306.59 389.17,280.33 391.82,263.35 392.90,301.10 393.85,346.22 395.91,207.40 398.28,255.44 400.82,213.34 403.19,225.37 405.53,230.63 406.40,230.54 407.26,233.28 408.14,246.57 409.01,224.10 409.89,245.85 412.36,262.66 415.22,220.35 417.90,238.31 420.30,234.51 422.67,271.20 423.63,258.83 424.49,248.90 425.39,259.07 426.25,253.34 427.12,277.05 428.82,249.33 431.19,244.27 433.79,233.48 436.20,265.31 438.52,231.74 440.89,219.60 441.92,220.11 442.77,223.88 443.65,224.32 444.49,219.38 445.88,203.12 448.29,240.70 450.69,207.26 453.06,249.20 455.65,207.96 458.75,263.15 461.25,267.91 462.09,240.47 462.95,222.46 463.82,230.59 465.74,216.32 468.13,203.00 470.45,209.59 473.44,209.75 476.53,250.29 479.73,207.45 482.83,195.27 484.06,189.23 484.94,200.59 487.55,290.41 489.95,139.41 492.71,256.92 495.35,273.18 497.70,126.04 498.62,121.68 499.56,149.87 501.99,294.11 504.43,138.67 506.84,212.16 509.30,413.57 511.19,273.28 512.04,204.57 512.91,189.40 513.76,182.63 514.65,191.83 516.00,202.88 518.63,262.87 521.05,227.01 523.39,192.90 525.24,314.31 528.20,270.90 531.34,207.70 533.85,225.29 536.18,194.39 538.22,198.85 539.20,181.80 540.23,174.19 541.27,166.64 542.28,187.09 545.09,252.37 548.19,382.63 551.14,174.10 553.71,266.99 556.04,220.25 558.14,230.08 559.00,288.02 559.86,255.17 562.10,272.59 564.47,296.60 566.86,295.97 569.58,213.08 572.64,218.16 574.99,227.43 576.08,208.52 577.12,198.74 578.16,218.92 579.32,214.40 582.50,194.21 585.65,265.98 588.57,167.83 591.10,269.42 593.97,228.22 594.82,287.04 595.70,282.80 596.59,258.61 597.45,252.24 598.33,232.51 599.19,248.94 600.07,239.94 601.03,234.78 603.61,242.47 606.07,251.24 608.22,320.00 609.09,341.21 609.94,298.41 610.83,284.70 613.07,226.56 615.44,321.06 617.86,319.08 620.52,308.36 623.72,299.95 626.22,273.08 627.35,285.90 628.21,253.39 629.11,249.05 629.97,239.14 632.56,283.36 635.81,323.67 638.91,226.47 641.99,259.43 645.06,290.43 648.04,210.50 649.40,232.85 650.29,210.25 652.72,174.78 655.62,274.60 658.46,250.01 661.49,296.28 664.60,422.76 666.99,180.84 667.85,141.08 668.72,147.55 669.58,259.32 670.45,305.93 671.30,194.48 673.39,346.79 675.76,259.38 678.08,264.96 680.43,301.41 682.86,307.76 685.27,248.68 686.55,239.68 687.48,252.85 688.42,309.21 689.45,251.44 690.41,279.38 691.28,268.44 692.13,244.61 694.49,245.68 696.87,243.65 699.22,258.18 701.57,266.67 703.92,237.38 704.86,270.40 705.91,277.78 706.94,248.20 707.97,241.22 710.78,271.42 713.91,251.28 716.79,258.70 719.32,238.17 722.42,249.58 724.47,290.64 725.46,291.77 727.44,314.56 729.81,336.67 732.17,334.13 734.46,224.85 736.83,268.24 739.14,214.52 741.55,236.39 742.70,249.07 743.58,214.17 744.44,221.56 745.28,233.80 746.15,238.37 747.03,239.55 747.87,237.31 748.75,234.11 749.61,220.35 751.99,182.96 754.30,216.64 756.73,228.57 759.08,233.46 761.51,182.89 762.97,202.09 763.84,206.34 765.92,174.01 768.30,306.18 770.64,143.14 773.07,219.36 775.45,279.58 777.22,227.45 778.08,259.82 778.92,269.68 779.77,260.56 780.77,269.01 781.82,161.78 782.86,247.80 783.76,261.47 784.60,271.33 785.51,295.64 786.37,284.37 787.25,225.48 788.12,282.04 789.01,232.59 790.59,217.34 792.95,222.18 795.29,262.82 797.67,209.94 800.00,226.79 802.42,208.22 805.35,217.86 807.92,236.90 810.28,219.96 813.41,200.20 816.32,200.86 818.63,180.24 819.47,196.36 820.33,217.64 822.61,208.58 825.08,179.97 828.09,289.38 830.72,100.57 833.08,226.98 835.39,415.46 837.07,263.17 838.91,172.65 841.52,336.84 843.86,281.87 846.19,262.56 848.56,275.19 850.90,275.11 852.32,260.73 853.19,237.22 854.04,235.75 854.91,233.05 857.37,266.67 859.97,261.49 862.34,235.36 864.89,222.90 866.49,215.57 867.40,345.35 868.28,335.04 869.17,313.55 870.03,261.39 870.98,227.80 873.43,291.34 875.83,349.16 878.14,276.46 879.02,281.95 880.06,285.87 882.19,295.85 885.12,286.73 888.29,277.72 891.38,297.30 894.46,297.35 897.62,302.89 900.75,315.44 902.08,283.83 903.11,279.91 904.14,250.32 906.58,253.33 908.94,253.21 911.28,269.42 913.69,262.11 915.68,249.34 916.53,277.57 917.40,254.94 918.29,250.50 919.97,275.47 922.31,249.57 924.67,260.06 927.12,321.85 930.23,300.93 931.90,265.08 932.78,273.99 933.65,280.53 934.54,243.26 935.42,198.05 936.29,273.05 937.14,288.80 938.00,333.24 938.86,327.30 940.25,265.89 942.66,272.64 945.02,270.27 947.58,302.98 949.87,321.37 950.72,268.14 951.60,260.76 953.05,295.77 955.91,310.13 959.03,290.99 962.28,316.03 964.68,312.91 966.20,318.86 967.06,293.35 967.91,290.95 970.00,255.28"/>
<text x="90.00" y="474" font-size="12" text-anchor="middle">11.75</text><text x="266.00" y="474" font-size="12" text-anchor="middle">23.06</text><text x="442.00" y="474" font-size="12" text-anchor="middle">34.37</text><text x="618.00" y="474" font-size="12" text-anchor="middle">45.68</text><text x="794.00" y="474" font-size="12" text-anchor="middle">56.99</text><text x="970.00" y="474" font-size="12" text-anchor="middle">68.31</text><text x="78" y="59.00" font-size="12" text-anchor="end">1.89</text><text x="78" y="138.00" font-size="12" text-anchor="end">1.14</text><text x="78" y="217.00" font-size="12" text-anchor="end">0.4</text><text x="78" y="296.00" font-size="12" text-anchor="end">-0.342</text><text x="78" y="375.00" font-size="12" text-anchor="end">-1.09</text><text x="78" y="454.00" font-size="12" text-anchor="end">-1.83</text>
<text x="530.0" y="498" font-size="14" text-anchor="middle">Time [s]</text>
<text transform="translate(24 252.5) rotate(-90)" font-size="14" text-anchor="middle">Total pitch [Nm]</text>
</g>
</svg>
