<svg xmlns="http://www.w3.org/2000/svg" width="1000" height="520" viewBox="0 0 1000 520">
<rect width="100%" height="100%" fill="white"/>
<text x="500.0" y="28" font-size="22" font-family="Arial, sans-serif" text-anchor="middle">time - PID (pitch)</text>
<g font-family="Arial, sans-serif" fill="#222">
<line x1="90.00" y1="55" x2="90.00" y2="450" stroke="#eeeeee"/><line x1="266.00" y1="55" x2="266.00" y2="450" stroke="#eeeeee"/><line x1="442.00" y1="55" x2="442.00" y2="450" stroke="#eeeeee"/><line x1="618.00" y1="55" x2="618.00" y2="450" stroke="#eeeeee"/><line x1="794.00" y1="55" x2="794.00" y2="450" stroke="#eeeeee"/><line x1="970.00" y1="55" x2="970.00" y2="450" stroke="#eeeeee"/><line x1="90" y1="55.00" x2="970" y2="55.00" stroke="#eeeeee"/><line x1="90" y1="134.00" x2="970" y2="134.00" stroke="#eeeeee"/><line x1="90" y1="213.00" x2="970" y2="213.00" stroke="#eeeeee"/><line x1="90" y1="292.00" x2="970" y2="292.00" stroke="#eeeeee"/><line x1="90" y1="371.00" x2="970" y2="371.00" stroke="#eeeeee"/><line x1="90" y1="450.00" x2="970" y2="450.00" stroke="#eeeeee"/>
<line x1="90" y1="450" x2="970" y2="450" stroke="#333" stroke-width="1.5"/>
<line x1="90" y1="55" x2="90" y2="450" stroke="#333" stroke-width="1.5"/>
<polyline fill="none" stroke="#1f77b4" stroke-width="2" points="90.00,422.76 90.89,415.99 91.78,412.60 92.68,410.16 93.57,408.46 94.46,397.96 95.35,397.60 96.25,401.82 97.63,400.06 99.10,396.98 100.45,386.76 101.80,392.91 103.27,354.38 104.60,300.76 105.08,298.49 105.57,291.70 106.09,277.59 106.67,258.95 108.06,239.57 109.36,235.94 110.70,225.74 112.17,207.89 113.58,192.08 114.97,189.03 115.47,193.82 116.36,182.36 117.71,208.16 119.07,164.61 120.41,193.69 121.56,188.28 122.05,190.53 122.86,184.55 124.16,175.60 125.52,165.33 126.91,158.66 128.32,100.20 129.66,185.15 130.17,198.63 130.68,224.23 131.18,156.95 131.99,222.93 133.41,189.43 134.71,240.44 136.33,142.50 137.65,208.70 138.99,238.51 140.09,134.36 140.60,181.79 142.00,209.01 143.69,83.02 145.05,173.28 146.37,144.13 147.70,180.49 149.03,305.75 150.03,262.80 150.51,264.15 151.43,283.07 152.85,269.46 154.16,267.42 155.47,205.58 156.68,392.13 157.34,338.00 158.94,157.49 160.65,227.93 162.78,213.67 164.60,207.56 165.93,202.49 167.26,203.31 167.74,186.57 168.31,178.22 169.85,194.69 171.30,205.25 172.63,185.51 173.97,178.22 175.30,176.40 175.95,177.20 176.44,204.72 177.80,165.38 179.11,165.76 180.44,154.50 181.76,188.62 183.25,210.01 184.57,217.96 185.77,209.57 186.33,233.20 187.49,274.72 188.90,170.72 190.23,220.37 191.53,374.88 192.90,297.52 194.29,190.44 195.34,224.91 196.68,223.85 198.38,228.74 199.75,370.26 201.17,173.71 202.53,190.40 203.85,204.07 204.39,188.22 205.03,165.97 206.39,165.89 207.77,147.71 209.08,85.07 210.41,174.10 211.78,135.53 212.26,171.39 212.75,152.05 213.66,151.18 214.98,167.91 216.30,249.33 217.65,82.24 218.99,307.71 220.42,264.87 221.75,272.91 223.12,264.53 223.79,252.26 224.97,217.93 226.45,208.42 227.78,241.67 229.09,225.07 230.56,217.79 232.06,238.46 233.45,229.99 234.35,232.34 234.85,229.64 235.33,228.40 235.84,229.37 237.01,217.41 238.51,234.94 240.02,211.99 241.35,215.36 242.91,207.40 244.57,166.91 245.16,176.99 245.74,177.80 247.16,156.64 248.96,130.59 250.53,165.81 252.01,116.38 253.79,146.94 254.97,161.48 256.98,173.95 259.18,232.88 260.91,256.83 262.54,336.54 264.01,300.89 264.85,250.98 265.43,318.55 266.01,300.56 267.70,262.40 269.48,296.83 271.25,221.15 273.05,234.03 274.84,247.09 276.64,253.51 278.09,240.39 278.58,205.81 279.41,197.46 281.22,208.40 282.98,185.71 284.74,164.06 286.47,189.43 287.82,196.06 289.17,307.30 290.50,225.67 291.20,303.98 291.70,230.64 292.96,171.51 294.28,252.04 295.63,235.86 297.16,236.19 298.93,132.69 300.74,171.23 302.17,126.42 303.22,150.27 303.85,137.41 305.24,142.87 306.71,219.68 308.07,143.90 309.37,214.70 310.76,341.00 311.35,289.35 311.84,171.58 312.35,177.02 312.94,302.17 314.29,290.70 315.61,174.42 316.95,323.51 318.28,296.55 320.12,286.44 321.79,211.94 323.12,312.56 324.02,306.67 324.52,288.66 325.00,181.04 325.50,194.73 326.69,245.63 327.99,328.48 329.32,198.10 330.67,236.08 332.13,216.39 333.16,223.88 333.65,204.54 334.73,218.57 336.15,220.67 337.77,189.58 339.22,189.28 340.53,198.58 341.46,196.23 341.96,184.28 342.44,182.15 342.95,182.01 344.21,161.40 345.54,277.72 346.86,223.75 348.19,229.13 349.73,243.75 351.27,244.97 352.26,233.85 354.05,240.89 355.85,250.93 357.27,258.93 358.61,241.39 360.03,250.44 360.55,245.02 361.73,235.54 363.29,161.55 365.23,249.91 366.87,209.14 368.20,237.49 369.53,187.87 370.84,195.90 372.19,191.91 372.76,199.04 373.31,187.31 374.67,217.99 376.09,290.25 377.41,269.02 378.73,177.56 380.06,219.67 380.87,217.17 381.35,203.77 382.58,208.35 383.91,209.09 385.21,214.34 386.54,200.16 388.20,182.09 389.58,172.46 390.17,209.06 390.75,194.03 391.33,191.49 392.49,185.53 393.80,181.90 395.11,169.22 396.43,149.89 397.77,143.09 399.11,163.95 399.69,178.12 400.17,185.26 400.67,175.97 401.23,166.16 401.82,159.04 402.39,277.76 402.98,274.72 404.04,282.47 405.68,294.46 407.47,287.00 409.19,314.59 410.84,288.60 411.84,305.43 412.34,295.43 413.42,216.47 414.73,208.04 416.14,225.02 417.55,226.27 419.31,273.29 421.02,227.93 421.54,266.60 422.03,256.11 423.16,239.61 424.84,252.52 426.15,238.66 427.49,231.28 428.80,235.90 430.10,234.80 431.44,250.66 432.73,242.03 433.23,243.92 433.73,249.56 434.35,254.02 435.89,248.47 437.41,262.89 438.73,245.77 440.07,246.99 441.45,250.49 442.83,250.06 444.17,258.43 445.67,249.08 447.66,262.37 449.40,231.04 451.66,196.79 452.52,179.85 453.85,147.07 455.56,236.15 456.92,264.17 458.24,293.51 459.59,174.72 460.91,319.27 462.24,263.97 463.57,168.11 464.10,226.88 464.64,296.82 465.92,234.16 467.26,272.10 469.03,232.86 470.40,228.97 472.08,246.04 473.26,242.88 473.75,226.61 474.25,153.52 474.75,214.18 475.23,232.98 475.89,299.86 477.22,157.01 478.52,223.36 479.88,235.66 481.20,227.91 482.66,235.65 483.97,210.35 485.45,309.15 486.31,183.10 487.14,182.39 488.50,272.64 489.86,141.72 491.19,206.25 492.52,263.85 493.85,138.17 495.16,168.01 495.71,152.93 496.86,155.82 498.26,154.57 499.91,144.43 501.34,130.74 502.97,143.97 504.61,135.42 505.27,133.70 505.76,120.86 506.33,131.71 506.91,161.76 507.50,142.19 508.06,136.36 509.40,129.92 510.74,115.76 512.13,119.35 513.44,120.29 514.83,113.62 516.14,147.23 517.46,198.66 518.53,320.57 519.04,298.91 519.53,267.82 520.87,289.57 522.22,346.75 523.60,297.30 524.59,323.05 525.09,312.48 525.56,297.49 526.07,319.25 526.56,300.96 527.06,320.00 527.55,307.13 528.57,293.43 530.07,286.99 531.41,242.69 532.76,238.54 533.35,283.49 533.83,263.30 534.63,264.78 535.96,244.89 537.39,268.28 539.15,252.36 540.94,240.68 542.61,259.19 543.70,242.69 545.57,249.70 547.32,241.71 548.93,249.15 550.40,256.72 551.71,248.32 552.34,256.09 553.46,234.09 555.02,226.39 556.52,256.16 557.96,266.04 559.34,234.56 560.64,206.29 561.13,146.14 561.61,165.96 562.54,196.78 563.93,314.06 565.27,278.24 566.58,177.32 567.92,206.34 569.07,203.43 569.56,180.15 570.05,182.40 570.56,181.64 571.60,177.67 572.91,184.96 574.26,164.65 575.60,184.46 576.91,170.12 578.26,166.08 579.29,169.37 579.79,161.56 580.89,159.29 582.37,160.90 583.75,276.66 585.13,233.16 586.40,238.06 586.89,264.55 587.74,272.48 589.24,287.84 590.59,253.69 591.97,216.72 593.59,201.72 594.35,194.87 595.26,197.86 596.59,197.13 597.95,177.48 599.35,201.57 600.79,189.59 601.53,179.47 602.13,158.77 602.70,164.09 603.29,189.25 603.87,190.51 604.45,184.93 605.97,179.01 607.76,179.85 609.56,199.83 610.95,195.99 612.63,216.20 614.05,228.10 615.38,204.36 616.04,227.80 616.53,243.90 617.03,322.27 617.53,275.95 618.02,248.55 618.51,243.20 619.09,281.80 620.45,263.15 621.86,256.20 623.18,253.20 624.54,275.48 625.83,266.31 626.42,270.55 627.44,289.40 628.79,289.79 630.14,294.58 631.67,302.76 633.30,293.79 634.34,265.91 634.93,165.71 635.51,206.06 636.09,234.43 636.61,215.19 637.14,182.22 638.26,215.15 639.77,187.41 641.26,192.92 642.76,188.09 644.78,183.85 646.04,176.25 646.64,225.66 648.02,141.25 649.39,240.74 651.01,221.88 652.59,282.78 654.36,253.19 655.19,235.80 655.78,252.88 656.36,161.90 657.27,139.49 659.01,190.72 660.77,173.20 662.66,140.49 664.44,147.39 666.16,139.10 666.68,152.57 667.18,174.03 667.68,155.06 668.92,205.95 670.21,276.23 671.58,246.43 672.92,260.85 674.24,273.73 675.24,274.29 675.76,169.36 676.81,218.44 678.30,252.17 679.65,334.75 681.01,178.68 682.32,239.95 683.66,204.72 684.54,221.80 685.03,188.43 686.21,190.54 687.57,225.86 689.05,206.86 690.85,273.59 692.06,247.22 692.55,252.96 693.07,256.78 693.88,262.30 695.19,243.39 696.53,233.38 697.85,141.16 699.19,186.87 700.14,178.73 700.79,239.13 701.38,269.42 701.96,211.32 702.54,229.32 703.10,222.48 703.60,266.18 704.11,243.21 705.05,223.02 706.36,203.21 707.70,320.21 709.04,250.58 710.37,158.40 711.79,194.18 712.36,295.66 712.86,260.63 713.48,221.52 714.05,186.26 714.64,198.40 715.21,142.98 716.41,308.30 717.92,269.82 719.77,251.56 721.70,260.39 723.21,272.94 724.56,244.22 726.10,238.22 727.85,234.70 728.61,246.05 729.20,246.67 729.77,245.99 730.37,270.47 730.95,251.08 731.54,255.82 732.15,254.03 733.00,185.33 734.79,358.74 736.55,282.47 738.00,153.74 739.88,174.37 741.54,168.98 742.80,152.10 744.45,121.72 746.14,153.62 747.59,138.08 748.96,148.77 750.25,139.24 751.22,152.23 751.71,154.99 752.74,218.38 754.24,239.48 755.57,159.83 756.93,328.42 758.23,278.98 759.55,262.08 760.89,269.96 762.21,273.09 763.54,251.92 764.38,260.21 764.95,272.30 765.46,279.61 766.74,253.53 768.21,249.42 769.55,248.97 770.89,261.53 772.23,165.71 773.59,210.98 774.96,186.56 776.20,156.34 777.67,143.07 779.04,147.77 780.44,140.87 781.75,136.77 783.06,132.50 783.55,135.78 784.04,149.49 784.53,138.10 785.01,137.62 785.50,145.86 786.43,145.78 787.74,147.09 789.03,148.51 790.42,257.05 792.21,255.08 793.76,271.49 794.26,268.48 794.75,255.20 795.88,264.68 797.25,187.01 798.59,202.48 799.91,216.35 801.24,183.15 801.83,184.26 802.63,187.74 804.00,175.25 805.36,193.57 806.69,178.08 807.82,169.78 808.31,191.78 808.79,185.43 809.29,163.85 810.26,173.79 811.76,190.35 813.23,158.12 814.59,205.77 815.91,201.86 817.39,317.10 817.87,306.30 818.35,272.15 818.85,268.85 819.33,269.48 820.31,291.55 821.69,298.87 823.08,281.85 824.46,281.20 825.16,290.24 825.64,303.66 826.12,290.89 826.62,283.13 827.80,295.70 829.30,266.71 830.66,277.45 832.06,172.34 833.39,308.23 834.19,278.19 834.76,274.37 835.33,229.47 835.96,217.11 837.68,229.19 839.58,280.10 841.51,256.76 843.66,197.29 845.41,129.57 846.16,182.23 846.67,188.36 847.38,192.52 848.72,180.76 850.02,197.56 851.36,209.93 852.67,232.95 854.01,386.77 855.56,285.65 857.29,291.31 857.81,294.99 858.97,138.68 860.31,248.06 861.63,270.83 862.96,332.86 864.34,164.84 865.68,249.23 866.82,285.17 868.15,394.96 869.46,338.52 870.82,160.97 872.16,274.28 873.49,363.06 874.81,267.56 875.45,281.68 875.96,317.62 877.71,292.62 879.32,295.16 881.08,261.05 882.83,316.40 884.20,142.99 885.55,232.04 886.63,300.45 887.58,368.72 888.93,278.62 890.27,153.40 891.62,285.89 892.96,345.26 894.31,177.55 895.64,192.38 896.21,221.71 897.40,246.80 898.72,263.87 900.32,260.29 901.97,272.86 903.30,288.57 904.61,267.14 905.73,267.42 906.23,274.93 906.73,231.28 907.23,242.02 907.70,230.11 908.20,234.18 908.69,242.88 909.19,233.60 910.44,234.90 911.95,315.62 913.36,139.31 914.74,313.39 916.05,123.77 917.38,219.95 918.52,273.34 919.01,240.63 919.55,263.85 920.05,140.82 921.27,215.04 922.59,271.30 923.91,269.76 925.23,125.98 926.54,207.27 927.85,243.77 929.16,238.46 929.85,262.24 930.44,185.38 931.90,314.24 933.25,249.98 934.59,285.05 936.20,213.42 937.11,199.35 938.33,265.57 939.99,233.64 941.74,178.11 943.26,307.26 944.57,133.51 945.41,197.15 946.76,282.24 948.09,253.02 949.43,240.05 950.74,241.02 952.10,282.51 953.43,170.99 954.43,268.15 954.96,297.15 955.45,267.33 955.95,254.98 956.43,253.83 956.95,256.07 957.45,257.35 958.30,257.33 959.62,265.30 960.94,274.60 962.27,268.53 963.61,204.64 965.22,215.01 966.55,308.60 967.99,241.58 968.52,251.25 969.01,254.65 969.51,126.38 970.00,189.36"/>
<text x="90.00" y="474" font-size="12" text-anchor="middle">11.78</text><text x="266.00" y="474" font-size="12" text-anchor="middle">31.51</text><text x="442.00" y="474" font-size="12" text-anchor="middle">51.23</text><text x="618.00" y="474" font-size="12" text-anchor="middle">70.96</text><text x="794.00" y="474" font-size="12" text-anchor="middle">90.69</text><text x="970.00" y="474" font-size="12" text-anchor="middle">110.42</text><text x="78" y="59.00" font-size="12" text-anchor="end">0.755</text><text x="78" y="138.00" font-size="12" text-anchor="end">0.403</text><text x="78" y="217.00" font-size="12" text-anchor="end">0.0517</text><text x="78" y="296.00" font-size="12" text-anchor="end">-0.3</text><text x="78" y="375.00" font-size="12" text-anchor="end">-0.651</text><text x="78" y="454.00" font-size="12" text-anchor="end">-1</text>
<text x="530.0" y="498" font-size="14" text-anchor="middle">Time [s]</text>
<text transform="translate(24 252.5) rotate(-90)" font-size="14" text-anchor="middle">PID pitch [Nm]</text>
</g>
</svg>
