<svg xmlns="http://www.w3.org/2000/svg" width="1000" height="520" viewBox="0 0 1000 520">
<rect width="100%" height="100%" fill="white"/>
<text x="500.0" y="28" font-size="22" font-family="Arial, sans-serif" text-anchor="middle">time - friction (pitch)</text>
<g font-family="Arial, sans-serif" fill="#222">
<line x1="90.00" y1="55" x2="90.00" y2="450" stroke="#eeeeee"/><line x1="266.00" y1="55" x2="266.00" y2="450" stroke="#eeeeee"/><line x1="442.00" y1="55" x2="442.00" y2="450" stroke="#eeeeee"/><line x1="618.00" y1="55" x2="618.00" y2="450" stroke="#eeeeee"/><line x1="794.00" y1="55" x2="794.00" y2="450" stroke="#eeeeee"/><line x1="970.00" y1="55" x2="970.00" y2="450" stroke="#eeeeee"/><line x1="90" y1="55.00" x2="970" y2="55.00" stroke="#eeeeee"/><line x1="90" y1="134.00" x2="970" y2="134.00" stroke="#eeeeee"/><line x1="90" y1="213.00" x2="970" y2="213.00" stroke="#eeeeee"/><line x1="90" y1="292.00" x2="970" y2="292.00" stroke="#eeeeee"/><line x1="90" y1="371.00" x2="970" y2="371.00" stroke="#eeeeee"/><line x1="90" y1="450.00" x2="970" y2="450.00" stroke="#eeeeee"/>
<line x1="90" y1="450" x2="970" y2="450" stroke="#333" stroke-width="1.5"/>
<line x1="90" y1="55" x2="90" y2="450" stroke="#333" stroke-width="1.5"/>
<polyline fill="none" stroke="#1f77b4" stroke-width="2" points="90.00,245.47 90.89,206.21 91.78,211.07 92.68,215.97 93.57,232.14 94.46,156.75 95.35,222.47 96.25,264.05 97.63,318.97 99.10,279.46 100.45,187.32 101.80,252.17 103.27,140.02 104.60,91.80 105.08,114.59 105.57,120.45 106.09,109.85 106.67,102.44 108.06,157.66 109.36,154.81 110.70,182.21 112.17,124.78 113.58,122.16 114.97,209.96 115.47,256.61 116.36,121.24 117.71,240.54 119.07,103.76 120.41,346.36 121.56,346.30 122.05,325.79 122.86,307.70 124.16,168.85 125.52,226.27 126.91,293.78 128.32,124.77 129.66,419.06 130.17,413.98 130.68,397.05 131.18,109.14 131.99,408.40 133.41,329.74 134.71,328.41 136.33,173.11 137.65,137.54 138.99,257.75 140.09,83.65 140.60,209.87 142.00,388.57 143.69,82.30 145.05,379.75 146.37,241.40 147.70,362.30 149.03,422.75 150.03,342.58 150.51,350.24 151.43,329.94 152.85,282.30 154.16,377.31 155.47,233.07 156.68,422.75 157.34,362.01 158.94,82.24 160.65,207.36 162.78,195.37 164.60,292.59 165.93,229.26 167.26,341.81 167.74,196.43 168.31,172.46 169.85,287.28 171.30,370.39 172.63,261.68 173.97,195.65 175.30,177.32 175.95,230.30 176.44,344.47 177.80,128.68 179.11,215.10 180.44,115.35 181.76,285.79 183.25,221.73 184.57,362.50 185.77,321.97 186.33,384.08 187.49,397.84 188.90,118.51 190.23,318.47 191.53,422.73 192.90,262.01 194.29,124.42 195.34,304.11 196.68,268.82 198.38,271.82 199.75,422.73 201.17,82.24 202.53,249.81 203.85,294.26 204.39,206.31 205.03,95.19 206.39,167.00 207.77,177.35 209.08,96.01 210.41,422.73 211.78,85.59 212.26,300.67 212.75,216.98 213.66,211.22 214.98,276.59 216.30,386.99 217.65,82.32 218.99,422.50 220.42,202.98 221.75,409.32 223.12,301.13 223.79,149.77 224.97,189.26 226.45,176.85 227.78,350.08 229.09,236.31 230.56,186.62 232.06,355.82 233.45,242.63 234.35,255.17 234.85,238.36 235.33,241.64 235.84,270.93 237.01,193.22 238.51,278.39 240.02,183.79 241.35,258.56 242.91,285.76 244.57,179.34 245.16,239.50 245.74,258.17 247.16,127.42 248.96,189.89 250.53,362.70 252.01,91.98 253.79,319.13 254.97,401.17 256.98,407.53 259.18,296.83 260.91,200.13 262.54,251.88 264.01,250.48 264.85,95.58 265.43,410.22 266.01,258.71 267.70,367.01 269.48,325.84 271.25,345.50 273.05,297.55 274.84,344.31 276.64,353.74 278.09,250.16 278.58,121.47 279.41,93.58 281.22,254.94 282.98,205.71 284.74,114.52 286.47,203.99 287.82,125.69 289.17,417.12 290.50,144.23 291.20,420.42 291.70,89.28 292.96,166.42 294.28,201.05 295.63,154.18 297.16,181.59 298.93,109.77 300.74,284.95 302.17,221.89 303.22,383.30 303.85,311.83 305.24,303.86 306.71,422.65 308.07,82.94 309.37,406.44 310.76,415.50 311.35,248.27 311.84,82.33 312.35,86.13 312.94,422.73 314.29,334.32 315.61,83.96 316.95,413.35 318.28,182.03 320.12,359.49 321.79,254.58 323.12,422.08 324.02,299.62 324.52,276.83 325.00,82.83 325.50,87.22 326.69,405.06 327.99,422.16 329.32,91.68 330.67,402.69 332.13,369.54 333.16,281.40 333.65,159.74 334.73,274.58 336.15,207.11 337.77,137.50 339.22,210.58 340.53,251.66 341.46,191.79 341.96,129.22 342.44,117.19 342.95,133.98 344.21,109.49 345.54,422.41 346.86,349.27 348.19,257.31 349.73,312.78 351.27,261.93 352.26,186.60 354.05,321.11 355.85,337.73 357.27,391.85 358.61,277.74 360.03,341.01 360.55,271.71 361.73,185.78 363.29,92.28 365.23,145.75 366.87,332.18 368.20,114.21 369.53,224.03 370.84,358.17 372.19,333.53 372.76,297.04 373.31,198.06 374.67,333.29 376.09,373.28 377.41,211.17 378.73,92.29 380.06,302.87 380.87,287.43 381.35,162.39 382.58,277.40 383.91,188.89 385.21,291.10 386.54,152.15 388.20,189.30 389.58,143.50 390.17,376.73 390.75,309.35 391.33,236.41 392.49,353.22 393.80,252.37 395.11,165.06 396.43,295.11 397.77,259.05 399.11,307.10 399.69,365.43 400.17,347.34 400.67,270.44 401.23,218.57 401.82,185.26 402.39,422.72 402.98,419.04 404.04,403.34 405.68,366.79 407.47,296.24 409.19,361.68 410.84,170.12 411.84,339.11 412.34,333.31 413.42,135.89 414.73,110.82 416.14,194.53 417.55,174.01 419.31,141.51 421.02,417.45 421.54,414.53 422.03,363.91 423.16,263.06 424.84,267.68 426.15,218.98 427.49,237.46 428.80,311.58 430.10,310.97 431.44,338.93 432.73,210.35 433.23,263.87 433.73,309.65 434.35,302.49 435.89,242.49 437.41,294.66 438.73,259.79 440.07,211.82 441.45,220.40 442.83,281.76 444.17,201.05 445.67,187.94 447.66,313.76 449.40,137.83 451.66,330.71 452.52,179.76 453.85,107.71 455.56,421.31 456.92,133.54 458.24,421.51 459.59,82.35 460.91,383.44 462.24,112.83 463.57,94.69 464.10,386.37 464.64,422.62 465.92,114.39 467.26,420.23 469.03,287.84 470.40,295.39 472.08,377.94 473.26,313.60 473.75,154.76 474.25,82.66 474.75,360.41 475.23,418.70 475.89,413.67 477.22,91.43 478.52,312.41 479.88,413.42 481.20,175.42 482.66,100.24 483.97,357.13 485.45,421.84 486.31,86.61 487.14,174.36 488.50,422.52 489.86,82.25 491.19,326.13 492.52,411.75 493.85,142.81 495.16,236.91 495.71,135.27 496.86,211.56 498.26,309.12 499.91,327.65 501.34,214.18 502.97,340.71 504.61,230.29 505.27,228.50 505.76,192.19 506.33,207.40 506.91,400.33 507.50,332.34 508.06,248.95 509.40,197.10 510.74,105.83 512.13,237.74 513.44,191.89 514.83,208.49 516.14,404.10 517.46,422.45 518.53,421.57 519.04,398.67 519.53,196.65 520.87,111.78 522.22,365.87 523.60,246.14 524.59,314.30 525.09,247.94 525.56,186.17 526.07,300.23 526.56,115.91 527.06,342.31 527.55,161.87 528.57,240.38 530.07,163.35 531.41,110.39 532.76,112.47 533.35,377.96 533.83,190.96 534.63,178.69 535.96,182.98 537.39,235.22 539.15,348.78 540.94,171.61 542.61,193.90 543.70,221.27 545.57,374.41 547.32,156.56 548.93,333.88 550.40,388.34 551.71,226.88 552.34,357.62 553.46,108.96 555.02,270.34 556.52,399.07 557.96,397.06 559.34,195.62 560.64,104.88 561.13,83.67 561.61,133.76 562.54,419.02 563.93,422.75 565.27,372.58 566.58,103.21 567.92,321.36 569.07,298.88 569.56,148.02 570.05,168.24 570.56,174.01 571.60,160.49 572.91,296.74 574.26,190.01 575.60,303.67 576.91,209.51 578.26,126.96 579.29,257.95 579.79,223.51 580.89,188.75 582.37,310.99 583.75,422.70 585.13,404.62 586.40,168.19 586.89,344.07 587.74,343.36 589.24,231.28 590.59,115.57 591.97,353.99 593.59,328.23 594.35,216.12 595.26,226.22 596.59,272.63 597.95,137.28 599.35,281.55 600.79,270.12 601.53,218.48 602.13,129.52 602.70,238.35 603.29,352.96 603.87,336.71 604.45,305.19 605.97,255.68 607.76,189.69 609.56,323.59 610.95,143.70 612.63,124.71 614.05,265.72 615.38,147.56 616.04,326.86 616.53,204.64 617.03,421.96 617.53,364.10 618.02,182.16 618.51,119.70 619.09,417.38 620.45,325.56 621.86,238.88 623.18,189.76 624.54,314.46 625.83,210.51 626.42,231.14 627.44,319.36 628.79,265.69 630.14,233.28 631.67,262.28 633.30,233.17 634.34,98.13 634.93,82.30 635.51,110.31 636.09,266.69 636.61,153.99 637.14,100.61 638.26,166.80 639.77,92.94 641.26,268.03 642.76,176.37 644.78,258.12 646.04,195.59 646.64,416.40 648.02,83.00 649.39,422.69 651.01,115.57 652.59,284.17 654.36,355.36 655.19,268.31 655.78,349.47 656.36,83.13 657.27,93.28 659.01,246.14 660.77,287.80 662.66,129.46 664.44,236.23 666.16,212.61 666.68,371.74 667.18,393.33 667.68,285.61 668.92,422.32 670.21,392.19 671.58,257.90 672.92,203.96 674.24,263.36 675.24,288.18 675.76,82.88 676.81,151.80 678.30,397.16 679.65,416.28 681.01,85.46 682.32,354.02 683.66,145.20 684.54,253.48 685.03,110.12 686.21,145.20 687.57,313.62 689.05,216.95 690.85,421.88 692.06,193.83 692.55,239.10 693.07,249.80 693.88,265.08 695.19,156.67 696.53,185.51 697.85,82.30 699.19,319.08 700.14,207.44 700.79,422.19 701.38,414.97 701.96,177.25 702.54,344.29 703.10,135.43 703.60,401.57 704.11,180.34 705.05,157.81 706.36,302.06 707.70,422.74 709.04,267.12 710.37,92.68 711.79,415.95 712.36,389.18 712.86,311.54 713.48,149.43 714.05,97.36 714.64,221.13 715.21,82.50 716.41,364.80 717.92,346.81 719.77,222.67 721.70,175.76 723.21,253.61 724.56,115.99 726.10,143.77 727.85,200.61 728.61,293.67 729.20,263.62 729.77,241.14 730.37,384.18 730.95,237.25 731.54,239.87 732.15,164.91 733.00,96.98 734.79,422.60 736.55,401.23 738.00,105.65 739.88,108.18 741.54,147.01 742.80,125.56 744.45,169.97 746.14,347.71 747.59,327.47 748.96,273.83 750.25,167.50 751.22,291.23 751.71,301.58 752.74,422.71 754.24,240.30 755.57,94.57 756.93,422.65 758.23,251.23 759.55,217.18 760.89,243.57 762.21,321.62 763.54,155.62 764.38,179.93 764.95,279.53 765.46,314.30 766.74,172.75 768.21,181.91 769.55,231.67 770.89,336.79 772.23,83.34 773.59,169.80 774.96,222.13 776.20,170.11 777.67,142.15 779.04,260.88 780.44,159.74 781.75,236.04 783.06,168.89 783.55,250.52 784.04,286.06 784.53,205.42 785.01,187.21 785.50,241.54 786.43,356.90 787.74,285.76 789.03,317.64 790.42,415.20 792.21,356.57 793.76,381.10 794.26,326.93 794.75,254.78 795.88,314.07 797.25,139.49 798.59,246.95 799.91,333.13 801.24,172.49 801.83,178.06 802.63,245.18 804.00,211.68 805.36,222.80 806.69,225.33 807.82,201.13 808.31,353.15 808.79,295.51 809.29,148.00 810.26,207.16 811.76,302.01 813.23,207.78 814.59,370.24 815.91,270.70 817.39,419.83 817.87,404.43 818.35,156.20 818.85,167.81 819.33,303.24 820.31,272.71 821.69,396.82 823.08,251.34 824.46,319.93 825.16,292.32 825.64,307.15 826.12,230.18 826.62,242.64 827.80,352.29 829.30,196.35 830.66,295.34 832.06,87.30 833.39,421.80 834.19,252.91 834.76,180.80 835.33,84.65 835.96,107.18 837.68,218.87 839.58,255.24 841.51,116.58 843.66,347.97 845.41,86.87 846.16,239.92 846.67,326.30 847.38,324.79 848.72,238.87 850.02,378.64 851.36,352.58 852.67,389.20 854.01,422.76 855.56,203.75 857.29,232.34 857.81,304.36 858.97,82.24 860.31,343.67 861.63,387.10 862.96,408.95 864.34,82.27 865.68,370.80 866.82,409.78 868.15,422.73 869.46,355.63 870.82,82.24 872.16,422.32 873.49,375.18 874.81,89.13 875.45,242.35 875.96,289.12 877.71,131.56 879.32,322.50 881.08,413.69 882.83,106.67 884.20,82.24 885.55,391.71 886.63,414.83 887.58,421.15 888.93,109.89 890.27,82.47 891.62,420.25 892.96,308.61 894.31,84.20 895.64,171.74 896.21,338.04 897.40,304.29 898.72,239.63 900.32,197.07 901.97,183.09 903.30,248.41 904.61,191.52 905.73,223.03 906.23,240.09 906.73,91.33 907.23,111.67 907.70,120.66 908.20,127.76 908.69,212.06 909.19,166.80 910.44,217.23 911.95,416.99 913.36,98.52 914.74,422.31 916.05,82.52 917.38,280.50 918.52,223.91 919.01,154.83 919.55,300.17 920.05,82.29 921.27,210.38 922.59,287.45 923.91,378.46 925.23,82.27 926.54,363.06 927.85,272.04 929.16,240.90 929.85,366.52 930.44,82.26 931.90,422.71 933.25,197.21 934.59,412.32 936.20,395.68 937.11,174.18 938.33,257.09 939.99,217.68 941.74,83.55 943.26,415.43 944.57,82.25 945.41,280.93 946.76,397.74 948.09,204.42 949.43,150.28 950.74,380.45 952.10,370.31 953.43,82.49 954.43,415.95 954.96,419.71 955.45,267.08 955.95,196.92 956.43,206.31 956.95,275.75 957.45,225.62 958.30,189.94 959.62,251.31 960.94,291.94 962.27,201.18 963.61,134.37 965.22,177.87 966.55,420.79 967.99,151.46 968.52,288.93 969.01,211.14 969.51,82.25 970.00,94.47"/>
<text x="90.00" y="474" font-size="12" text-anchor="middle">11.78</text><text x="266.00" y="474" font-size="12" text-anchor="middle">31.51</text><text x="442.00" y="474" font-size="12" text-anchor="middle">51.23</text><text x="618.00" y="474" font-size="12" text-anchor="middle">70.96</text><text x="794.00" y="474" font-size="12" text-anchor="middle">90.69</text><text x="970.00" y="474" font-size="12" text-anchor="middle">110.42</text><text x="78" y="59.00" font-size="12" text-anchor="end">0.348</text><text x="78" y="138.00" font-size="12" text-anchor="end">0.209</text><text x="78" y="217.00" font-size="12" text-anchor="end">0.0696</text><text x="78" y="296.00" font-size="12" text-anchor="end">-0.0696</text><text x="78" y="375.00" font-size="12" text-anchor="end">-0.209</text><text x="78" y="454.00" font-size="12" text-anchor="end">-0.348</text>
<text x="530.0" y="498" font-size="14" text-anchor="middle">Time [s]</text>
<text transform="translate(24 252.5) rotate(-90)" font-size="14" text-anchor="middle">Friction pitch [Nm]</text>
</g>
</svg>
